<?xml version="1.0" standalone="no"?><!DOCTYPE svg PUBLIC "-//W3C//DTD SVG 1.1//EN" "http://www.w3.org/Graphics/SVG/1.1/DTD/svg11.dtd"><svg t="1620281718018" class="icon" viewBox="0 0 1024 1024" version="1.1" xmlns="http://www.w3.org/2000/svg" p-id="34558" data-spm-anchor-id="a313x.7781069.0.i34" xmlns:xlink="http://www.w3.org/1999/xlink" width="200" height="200"><defs><style type="text/css"></style></defs><path d="M327.322 380.1c0-0.853-2.558 2.046 0 0z m46.894-112.206a19.61 19.61 0 0 1-5.798-7.844 233.448 233.448 0 0 0-77.077 108.454h68.21a363.047 363.047 0 0 1 23.703-94.642 91.06 91.06 0 0 1-9.038-5.968z m102.315-54.909a135.055 135.055 0 0 0-41.95 46.042 179.733 179.733 0 0 0 57.979 17.052v-64.8c-5.798 0.342-11.255 1.024-16.54 1.706z m-59.172 81.681a339.173 339.173 0 0 0-18.246 73.838h93.447V315.47a222.705 222.705 0 0 1-75.713-20.804z m130.792-81.68c-5.286-0.853-10.402-1.365-15.688-1.706v64.288a178.369 178.369 0 0 0 57.808-17.053 133.01 133.01 0 0 0-42.632-45.53z m59.172 81.851a221.682 221.682 0 0 1-74.86 20.804v52.863h93.277a330.477 330.477 0 0 0-18.929-73.667z m48.77-34.105a21.657 21.657 0 0 1-5.968 8.356l-8.185 5.968a375.154 375.154 0 0 1 23.532 93.448h67.357a232.596 232.596 0 0 0-77.247-108.454z m0 0a21.657 21.657 0 0 1-5.968 8.356l-8.185 5.968a375.154 375.154 0 0 1 23.532 93.448h67.357a232.596 232.596 0 0 0-77.247-108.454z m-48.77 34.105a221.682 221.682 0 0 1-74.86 20.804v52.863h93.277a330.477 330.477 0 0 0-18.929-73.667z m-59.172-81.852c-5.286-0.852-10.402-1.364-15.688-1.705v64.288a178.369 178.369 0 0 0 57.808-17.053 133.01 133.01 0 0 0-42.632-45.53z m-130.792 81.681a339.173 339.173 0 0 0-18.246 73.838h93.447V315.47a222.705 222.705 0 0 1-75.713-20.804z m59.172-81.68a135.055 135.055 0 0 0-41.95 46.04 179.733 179.733 0 0 0 57.979 17.053v-64.8c-5.798 0.342-11.255 1.024-16.54 1.706z m-102.315 54.908a19.61 19.61 0 0 1-5.798-7.844 233.448 233.448 0 0 0-77.077 108.454h68.21a363.047 363.047 0 0 1 23.703-94.642 91.06 91.06 0 0 1-9.038-5.968zM327.322 380.1c0-0.852-2.558 2.047 0 0z m0 0c0-0.852-2.558 2.047 0 0z m46.894-112.205a19.61 19.61 0 0 1-5.798-7.844 233.448 233.448 0 0 0-77.077 108.454h68.21a363.047 363.047 0 0 1 23.703-94.642 91.06 91.06 0 0 1-9.038-5.968z m102.315-54.909a135.055 135.055 0 0 0-41.95 46.042 179.733 179.733 0 0 0 57.979 17.052v-64.8c-5.798 0.342-11.255 1.024-16.54 1.706z m-59.172 81.681a339.173 339.173 0 0 0-18.246 73.838h93.447V315.47a222.705 222.705 0 0 1-75.713-20.804z m130.792-81.68c-5.286-0.853-10.402-1.365-15.688-1.706v64.288a178.369 178.369 0 0 0 57.808-17.053 133.01 133.01 0 0 0-42.632-45.53z m59.172 81.851a221.682 221.682 0 0 1-74.86 20.804v52.863h93.277a330.477 330.477 0 0 0-18.929-73.667z m-2.217 341.05c-12.107 0.852-23.02 1.363-34.105 1.363a263.631 263.631 0 0 1-159.952-51.157 19.44 19.44 0 0 1-8.014-14.154 19.951 19.951 0 0 1 5.286-15.517l29.16-31.036H323.4V637.08l24.385-24.215a20.122 20.122 0 0 1 13.983-5.968 19.61 19.61 0 0 1 14.153 6.65 220.659 220.659 0 0 0 39.22 32.059A179.221 179.221 0 0 0 512 676.471a201.73 201.73 0 0 0 38.197-3.581 237.54 237.54 0 0 0 89.696-34.105l1.876-1.535c4.434-3.07 8.697-6.31 12.96-9.55a249.477 249.477 0 0 1-50.134 8.868z m51.158-376.52a21.657 21.657 0 0 1-5.969 8.357l-8.185 5.968a375.154 375.154 0 0 1 23.362 94.812h67.357a232.596 232.596 0 0 0-77.247-108.454zM512 0A511.574 511.574 0 0 0 0.426 511.574a504.07 504.07 0 0 0 25.579 159.61 790.893 790.893 0 0 1 257.662-35.127V505.776a19.951 19.951 0 0 1 19.952-19.952h179.903a19.951 19.951 0 0 1 14.495 34.105l-44.507 47.406a221.682 221.682 0 0 0 117.662 31.377c9.208 0 19.27 0 30.183-1.364 82.704-6.65 118.514-52.351 124.312-60.537a231.572 231.572 0 0 0 19.44-93.447 218.612 218.612 0 0 0-2.728-35.128H668.2v11.254a409.259 409.259 0 0 1-13.983 109.136 20.122 20.122 0 0 1-19.269 14.495 19.61 19.61 0 0 1-5.286 0 19.951 19.951 0 0 1-13.813-24.556 363.558 363.558 0 0 0 12.79-97.71V409.77H531.95v30.182a19.951 19.951 0 0 1-39.903 0V409.26h-96.346v11.084a19.951 19.951 0 1 1-39.732 0v-11.084H281.62a235.835 235.835 0 0 0-2.728 34.105v9.89a19.78 19.78 0 0 1-18.928 20.634 19.951 19.951 0 0 1-20.804-18.928v-11.596a272.84 272.84 0 0 1 6.309-58.149v-2.046A272.84 272.84 0 0 1 512 170.525a279.32 279.32 0 0 1 44.848 3.751h2.046A272.84 272.84 0 0 1 778.018 383.34v1.876a271.816 271.816 0 0 1-17.052 166.944 10.914 10.914 0 0 1 0 1.193l-1.535 3.07a262.778 262.778 0 0 1-113.058 123.46 227.82 227.82 0 0 1-27.625 13.3 658.907 658.907 0 0 0 379.247-21.827 504.07 504.07 0 0 0 25.579-159.781A511.574 511.574 0 0 0 512 0zM68.636 596.836a34.105 34.105 0 1 1 34.105-34.105 34.105 34.105 0 0 1-34.105 34.105z m102.315 17.052a17.052 17.052 0 1 1 17.052-17.052 17.052 17.052 0 0 1-17.052 17.052z m767.36 34.105a34.105 34.105 0 1 1 34.105-34.105 34.105 34.105 0 0 1-34.105 34.105zM655.581 260.05a21.657 21.657 0 0 1-5.968 8.356l-8.185 5.968a375.154 375.154 0 0 1 24.044 94.13h67.357a232.596 232.596 0 0 0-77.247-108.454zM641.94 636.91c4.433-3.07 8.696-6.31 12.96-9.55a249.477 249.477 0 0 1-51.158 9.208c-12.107 0.853-23.02 1.364-34.105 1.364a263.631 263.631 0 0 1-159.952-51.157 19.44 19.44 0 0 1-8.015-14.154 19.951 19.951 0 0 1 5.287-15.517l29.16-31.036H323.4v111.694l24.385-24.215a20.122 20.122 0 0 1 13.983-5.968 19.61 19.61 0 0 1 14.153 6.65 220.659 220.659 0 0 0 39.22 32.06A179.221 179.221 0 0 0 512 676.47a201.73 201.73 0 0 0 38.197-3.581 237.54 237.54 0 0 0 89.696-34.105zM531.95 368.503h93.277a330.477 330.477 0 0 0-18.417-73.667 221.682 221.682 0 0 1-74.86 20.804z m15.688-155.519c-5.286-0.852-10.402-1.364-15.688-1.705v64.288a178.369 178.369 0 0 0 57.808-17.053 133.01 133.01 0 0 0-42.12-45.53zM398.601 368.504h93.447V315.47a222.705 222.705 0 0 1-75.2-20.804 339.173 339.173 0 0 0-18.247 73.838z m93.447-157.224c-5.286 0-10.743 1.023-16.029 1.705a135.055 135.055 0 0 0-41.949 46.042 179.733 179.733 0 0 0 57.978 17.052z m-109.647 62.582a91.06 91.06 0 0 1-8.185-5.968 19.61 19.61 0 0 1-5.798-7.844 233.448 233.448 0 0 0-77.077 108.454h68.21a363.047 363.047 0 0 1 22.85-94.642zM327.321 380.1c0-0.852-2.557 2.047 0 0z m0 0c0-0.852-2.557 2.047 0 0z m46.895-112.205a19.61 19.61 0 0 1-5.798-7.844 233.448 233.448 0 0 0-77.077 108.454h68.21a363.047 363.047 0 0 1 23.703-94.642 91.06 91.06 0 0 1-9.038-5.968z m102.315-54.909a135.055 135.055 0 0 0-41.95 46.042 179.733 179.733 0 0 0 57.979 17.052v-64.8c-5.798 0.342-11.255 1.024-16.54 1.706z m-59.172 81.681a339.173 339.173 0 0 0-18.246 73.838h93.447V315.47a222.705 222.705 0 0 1-75.713-20.804z m130.792-81.68c-5.286-0.853-10.402-1.365-15.688-1.706v64.288a178.369 178.369 0 0 0 57.808-17.053 133.01 133.01 0 0 0-42.632-45.53z m59.172 81.851a221.682 221.682 0 0 1-74.86 20.804v52.863h93.277a330.477 330.477 0 0 0-18.929-73.667z m-2.217 341.05c-12.107 0.852-23.02 1.363-34.105 1.363a263.631 263.631 0 0 1-159.952-51.157 19.44 19.44 0 0 1-8.014-14.154 19.951 19.951 0 0 1 5.286-15.517l29.16-31.036H323.4V637.08l24.385-24.215a20.122 20.122 0 0 1 13.983-5.968 19.61 19.61 0 0 1 14.153 6.65 220.659 220.659 0 0 0 39.22 32.059A179.221 179.221 0 0 0 512 676.471a201.73 201.73 0 0 0 38.197-3.581 237.54 237.54 0 0 0 89.696-34.105l1.876-1.535c4.434-3.07 8.697-6.31 12.96-9.55a249.477 249.477 0 0 1-50.134 8.868z m51.158-376.52a21.657 21.657 0 0 1-5.969 8.357l-8.185 5.968a375.154 375.154 0 0 1 23.362 94.812h67.357a232.596 232.596 0 0 0-77.247-108.454z m0 0a21.657 21.657 0 0 1-5.969 8.357l-8.185 5.968a375.154 375.154 0 0 1 23.362 94.812h67.357a232.596 232.596 0 0 0-77.247-108.454z m-51.158 376.52c-12.107 0.852-23.02 1.363-34.105 1.363a263.631 263.631 0 0 1-159.952-51.157 19.44 19.44 0 0 1-8.014-14.154 19.951 19.951 0 0 1 5.286-15.517l29.16-31.036H323.4V637.08l24.385-24.215a20.122 20.122 0 0 1 13.983-5.968 19.61 19.61 0 0 1 14.153 6.65 220.659 220.659 0 0 0 39.22 32.059A179.221 179.221 0 0 0 512 676.471a201.73 201.73 0 0 0 38.197-3.581 237.54 237.54 0 0 0 89.696-34.105l1.876-1.535c4.434-3.07 8.697-6.31 12.96-9.55a249.477 249.477 0 0 1-50.134 8.868z m2.217-341.05a221.682 221.682 0 0 1-74.86 20.804v52.863h93.277a330.477 330.477 0 0 0-18.929-73.667z m-59.172-81.852c-5.286-0.852-10.402-1.364-15.688-1.705v64.288a178.369 178.369 0 0 0 57.808-17.053 133.01 133.01 0 0 0-42.632-45.53z m-130.792 81.681a339.173 339.173 0 0 0-18.246 73.838h93.447V315.47a222.705 222.705 0 0 1-75.713-20.804z m59.172-81.68a135.055 135.055 0 0 0-41.95 46.04 179.733 179.733 0 0 0 57.979 17.053v-64.8c-5.798 0.342-11.255 1.024-16.54 1.706z m-102.315 54.908a19.61 19.61 0 0 1-5.798-7.844 233.448 233.448 0 0 0-77.077 108.454h68.21a363.047 363.047 0 0 1 23.703-94.642 91.06 91.06 0 0 1-9.038-5.968zM327.322 380.1c0-0.852-2.558 2.047 0 0z" fill="#166ce8" p-id="34559" data-spm-anchor-id="a313x.7781069.0.i32" class="selected"></path><path d="M327.322 380.1c0-0.853-2.558 2.046 0 0z m-2.9 256.98zM512 676.47a179.221 179.221 0 0 1-95.835-30.864 1102.612 1102.612 0 0 1 129.94 25.579l4.092 1.705A201.73 201.73 0 0 1 512 676.47z m-485.995-5.285l1.023 3.24a24.897 24.897 0 0 1-1.194-3.24z m972.16 0z" fill="#1296DB" p-id="34560"></path><path d="M997.995 671.355a1.876 1.876 0 0 1 0 0.853 2.387 2.387 0 0 1 0 1.023 332.182 332.182 0 0 1-22.68 56.273 508.579 508.579 0 0 1-15.518 29.16 613.888 613.888 0 0 1-75.372 103.85c-1.193 1.363-2.387 2.898-3.751 4.262l-2.217 2.047c-1.705 1.875-4.775 4.774-8.867 8.526l-12.96 11.596c-10.061 8.867-22.68 19.44-36.833 30.523-7.162 5.457-14.665 11.085-22.34 17.053l-2.557 1.876a341.05 341.05 0 0 1-72.132 40.243 415.057 415.057 0 0 1-176.663 44.507 498.614 498.614 0 0 1-83.216-2.387 31.718 31.718 0 0 1-5.628 0c-4.774 0-9.549-1.023-14.494-1.705l-12.79-1.876-14.835-2.558h-1.194a489.405 489.405 0 0 1-284.776-163.703l-3.58-4.093c-3.07-2.728-46.384-42.802-85.263-136.42a487.588 487.588 0 0 1-13.642-36.15 24.897 24.897 0 0 1-1.194-3.24 790.893 790.893 0 0 1 258.174-34.958v49.281a19.951 19.951 0 0 0 34.105 14.154l44.848-44.848A233.96 233.96 0 0 0 512 716.204a280.342 280.342 0 0 0 107.26-22.169 658.907 658.907 0 0 0 378.735-22.68z" fill="#166ce8" opacity=".36" p-id="34561" data-spm-anchor-id="a313x.7781069.0.i41" class="selected"></path><path d="M904.206 613.888a34.105 34.105 0 1 0 68.21 0 34.105 34.105 0 1 0-68.21 0z" fill="#1296DB" opacity=".5" p-id="34562"></path><path d="M153.898 596.836a17.052 17.052 0 1 0 34.105 0 17.052 17.052 0 1 0-34.105 0z" fill="#1296DB" opacity=".3" p-id="34563"></path><path d="M327.322 380.1c-2.558 2.046 0-0.853 0 0z m31.206-11.596h-68.21a233.448 233.448 0 0 1 77.077-108.454 19.61 19.61 0 0 0 5.798 7.844 91.06 91.06 0 0 0 8.185 5.968 363.047 363.047 0 0 0-22.85 94.642z m133.52-92.936a179.733 179.733 0 0 1-57.978-17.053 135.055 135.055 0 0 1 41.95-46.041c5.285 0 10.742-1.365 16.028-1.706z m0 92.936h-93.447a339.173 339.173 0 0 1 18.246-73.838 222.705 222.705 0 0 0 75.201 20.804z m97.711-109.307a178.369 178.369 0 0 1-57.808 17.053v-64.97c5.286 0 10.402 0 15.688 1.705a133.01 133.01 0 0 1 42.12 46.212z m35.47 109.307H531.95V315.64a221.682 221.682 0 0 0 74.86-20.804 330.477 330.477 0 0 1 18.417 73.667z m29.67 258.856c-4.263 3.24-8.526 6.48-12.96 9.55l-1.875 1.534a237.54 237.54 0 0 1-89.696 34.105 201.73 201.73 0 0 1-38.198 3.58 179.221 179.221 0 0 1-95.834-30.864 220.659 220.659 0 0 1-39.392-31.377 19.61 19.61 0 0 0-14.153-6.65 20.122 20.122 0 0 0-13.983 5.968l-24.385 23.874V525.727h114.08l-29.159 31.036a19.951 19.951 0 0 0-5.286 15.517 19.44 19.44 0 0 0 8.014 14.154 263.631 263.631 0 0 0 159.952 51.157c10.573 0 21.487 0 34.105-1.364a249.477 249.477 0 0 0 48.77-8.867z m77.76-258.856h-67.187a375.154 375.154 0 0 0-23.874-94.13l8.186-5.968a21.657 21.657 0 0 0 5.968-8.356 232.596 232.596 0 0 1 76.907 108.454z" fill="#1296DB" p-id="34564"></path><path d="M492.048 211.28v64.288a179.733 179.733 0 0 1-57.978-17.053 135.055 135.055 0 0 1 41.95-46.041c5.285-0.17 10.742-0.853 16.028-1.194z m97.711 47.917a178.369 178.369 0 0 1-57.808 17.053v-64.97c5.286 0 10.402 0 15.688 1.705a133.01 133.01 0 0 1 42.12 46.212z m-207.358 14.665a363.047 363.047 0 0 0-23.873 94.642h-68.21a233.448 233.448 0 0 1 77.077-108.454 19.61 19.61 0 0 0 5.798 7.844 91.06 91.06 0 0 0 9.208 5.968z m109.647 41.608v53.034h-93.447a339.173 339.173 0 0 1 18.246-73.838 222.705 222.705 0 0 0 75.201 20.804z m133.18 53.034h-93.277V315.64a221.682 221.682 0 0 0 74.86-20.804 330.477 330.477 0 0 1 18.417 73.667z m107.43 0h-67.186a375.154 375.154 0 0 0-23.874-94.13l8.186-5.968a21.657 21.657 0 0 0 5.968-8.356 232.596 232.596 0 0 1 76.907 108.454zM654.9 627.36c-4.263 3.24-8.526 6.48-12.96 9.55l-1.875 1.534a237.54 237.54 0 0 1-89.696 34.105 201.73 201.73 0 0 1-38.198 3.58 179.221 179.221 0 0 1-95.834-30.864 220.659 220.659 0 0 1-39.392-31.377 19.61 19.61 0 0 0-14.153-6.65 20.122 20.122 0 0 0-13.983 5.968l-24.385 23.874V525.727h114.08l-29.159 31.036a19.951 19.951 0 0 0-5.286 15.517 19.44 19.44 0 0 0 8.014 14.154 263.631 263.631 0 0 0 159.952 51.157c10.573 0 21.487 0 34.105-1.364a249.477 249.477 0 0 0 48.77-8.867z" fill="#166ce8" p-id="34565" data-spm-anchor-id="a313x.7781069.0.i35" class="selected"></path></svg>