<?xml version="1.0" standalone="no"?><!DOCTYPE svg PUBLIC "-//W3C//DTD SVG 1.1//EN" "http://www.w3.org/Graphics/SVG/1.1/DTD/svg11.dtd"><svg t="1620306027859" class="icon" viewBox="0 0 1024 1024" version="1.1" xmlns="http://www.w3.org/2000/svg" p-id="48874" xmlns:xlink="http://www.w3.org/1999/xlink" width="200" height="200"><defs><style type="text/css"></style></defs><path d="M949.546667 203.050667c6.826667 6.826667 10.453333 21.162667 10.453333 30.72 0 19.84-24.96 42.965333-44.586667 42.965333h-42.069333v597.376c0 39.04-45.44 85.632-84.181333 85.632L234.325333 960c-38.741333 0-84.266667-46.848-84.266666-85.888V276.736H105.770667c-19.754667 0-41.770667-23.125333-41.770667-43.008 0-19.84 22.101333-41.344 41.770667-41.344h170.581333V134.698667c0-38.997333 39.808-70.698667 78.549333-70.698667h314.154667c38.741333 0 76.928 31.701333 76.928 70.698667V192.426667h169.386667c9.6 0 27.392 3.84 34.176 10.666666zM362.069333 149.333333v42.666667h298.112v-42.666667H362.069333z m-127.744 725.333334h553.6v-597.333334H234.325333v597.333334z m328.96-256.426667l1.962667 31.488 67.669333-0.64c10.666667 17.152 21.034667 36.181333 21.930667 52.224 0.853333 16.298667-5.973333 47.232-31.488 48.426667l-54.144 4.352-3.541333 35.072-50.602667-82.688 48.213333-88.277334z m-258.517333 4.693333c17.834667 20.565333 41.130667 24.448 58.88 23.381334l114.645333 0.810666v104.32H417.834667c-22.485333 0.554667-44.202667-2.986667-55.765334-18.346666L304.768 622.933333z m371.541333-123.52l32 53.333334c12.373333 19.626667 20.992 40.661333 14.592 58.965333l-59.392 109.013333c7.338667-26.624-1.834667-49.237333-12.16-64.426666l-60.032-101.546667 84.992-55.338667z m-281.173333 0.042667l46.293333 89.344-26.709333-15.061333-35.328 60.117333c-19.626667 0.256-40.618667-0.64-54.186667-8.362667-13.696-7.850667-35.328-30.293333-22.741333-53.418666l25.088-50.090667-26.666667-21.674667 94.208-0.853333zM440.021333 362.666667l120.362667 1.28c-25.941333 6.186667-40.490667 25.514667-48.213333 42.24l-56.234667 103.936L368.213333 459.52l29.312-55.04c10.453333-20.736 24.021333-38.741333 42.496-41.813333z m108.288 18.602666c13.226667-8.789333 42.581333-17.493333 55.893334 5.12l29.909333 47.189334 31.232-13.781334-44.970667 86.186667-97.536-1.152 25.6-17.024-33.408-61.269333c9.301333-18.005333 20.224-36.693333 33.28-45.269334z" p-id="48875"></path></svg>