<?xml version="1.0" standalone="no"?><!DOCTYPE svg PUBLIC "-//W3C//DTD SVG 1.1//EN" "http://www.w3.org/Graphics/SVG/1.1/DTD/svg11.dtd"><svg t="1620305824657" class="icon" viewBox="0 0 1024 1024" version="1.1" xmlns="http://www.w3.org/2000/svg" p-id="38174" xmlns:xlink="http://www.w3.org/1999/xlink" width="200" height="200"><defs><style type="text/css"></style></defs><path d="M999.281061 1024m-81.352213 0l-813.59845 0q-81.352213 0-81.352213-81.352213l0 0q0-81.352213 81.352213-81.352214l813.59845 0q81.352213 0 81.352213 81.352214l0 0q0 81.352213-81.352213 81.352213Z" p-id="38175"></path><path d="M659.982805 339.374571l-460.181845 460.181846a81.352213 81.352213 0 0 1-115.083619 0 81.352213 81.352213 0 0 1 0-115.007304l460.181845-460.181845 115.083619 115.007303z" p-id="38176"></path><path d="M826.808264 172.625429l-115.159935 115.159934-115.007304-115.083619 115.159935-115.159934a81.352213 81.352213 0 0 1 115.007304 0 81.352213 81.352213 0 0 1 0 115.083619z" p-id="38177"></path></svg>