<?xml version="1.0" standalone="no"?><!DOCTYPE svg PUBLIC "-//W3C//DTD SVG 1.1//EN" "http://www.w3.org/Graphics/SVG/1.1/DTD/svg11.dtd"><svg t="1620281666904" class="icon" viewBox="0 0 1024 1024" version="1.1" xmlns="http://www.w3.org/2000/svg" p-id="30525" xmlns:xlink="http://www.w3.org/1999/xlink" width="200" height="200"><defs><style type="text/css"></style></defs><path d="M925.555 202.55L585.16 19.691a149.099 149.099 0 0 0-146.286 0L95.665 202.55a151.912 151.912 0 0 0-81.582 137.847v343.208a151.912 151.912 0 0 0 81.582 137.847l343.209 182.857a149.099 149.099 0 0 0 146.286 0L925.555 821.45a154.725 154.725 0 0 0 84.396-137.847V340.396a154.725 154.725 0 0 0-84.396-137.847z" fill="#3366CC" p-id="30526" data-spm-anchor-id="a313x.7781069.0.i29" class="selected"></path><path d="M194.127 402.286v306.637a56.264 56.264 0 0 0 56.263 56.264h542.945a56.264 56.264 0 0 0 56.264-56.264V402.286z" fill="#ffffff" p-id="30527" data-spm-anchor-id="a313x.7781069.0.i28" class="selected"></path><path d="M838.346 284.132l-5.626-8.44-8.44-8.44a56.264 56.264 0 0 0-30.945-8.439H250.39a56.264 56.264 0 0 0-30.945 8.44l-8.44 8.44-5.626 8.439a59.077 59.077 0 0 0-11.252 30.945v87.209h655.472v-87.21a59.077 59.077 0 0 0-11.253-30.944z" fill="#3F3C56" p-id="30528"></path><path d="M239.138 315.077h50.637v32.352h-50.637z m101.274 0h50.638v32.352h-50.638z m104.088 0h50.638v32.352H444.5z" fill="#FFFFFF" p-id="30529"></path><path d="M441.687 548.571l-70.33-70.33a33.758 33.758 0 0 0-39.384 0 28.132 28.132 0 0 0 0 39.385l50.637 50.638-50.637 50.637a33.758 33.758 0 0 0 2.813 39.385 33.758 33.758 0 0 0 36.571 2.813l70.33-70.33a30.945 30.945 0 0 0 0-42.198zM469.819 647.033h233.494q19.693 0 19.693 19.692v10.972q0 19.692-19.693 19.692H469.82q-19.692 0-19.692-19.692v-10.972q0-19.692 19.692-19.692z" fill="#3F3C56" p-id="30530"></path></svg>