<?xml version="1.0" standalone="no"?><!DOCTYPE svg PUBLIC "-//W3C//DTD SVG 1.1//EN" "http://www.w3.org/Graphics/SVG/1.1/DTD/svg11.dtd"><svg t="1620025445826" class="icon" viewBox="0 0 1024 1024" version="1.1" xmlns="http://www.w3.org/2000/svg" p-id="20232" xmlns:xlink="http://www.w3.org/1999/xlink" width="200" height="200"><defs><style type="text/css"></style></defs><path d="M1022.38848 603.392l-57.6-176.32-113.536-349.504a19.2 19.2 0 0 0-37.12 0l-113.536 349.504H323.76448L210.22848 77.568a19.2 19.2 0 0 0-37.12 0L59.57248 427.072l-57.6 176.32a39.04 39.04 0 0 0 14.208 43.648l495.872 360.32 495.872-360.256a39.04 39.04 0 0 0 14.208-43.648" fill="#FC6D26" p-id="20233"></path><path d="M512.37248 1007.296l188.544-580.288H323.82848z" fill="#E24329" p-id="20234"></path><path d="M512.37248 1007.296L323.82848 427.008H59.44448z" fill="#FC6D26" p-id="20235"></path><path d="M59.57248 427.008l-57.6 176.32a39.04 39.04 0 0 0 14.208 43.648l495.872 360.256z" fill="#FCA326" p-id="20236"></path><path d="M59.57248 427.008h264.256L210.29248 77.504a19.2 19.2 0 0 0-37.12 0z" fill="#E24329" p-id="20237"></path><path d="M512.24448 1007.36l188.544-580.288h264.256z" fill="#FC6D26" p-id="20238"></path><path d="M965.17248 427.008l57.6 176.32a39.04 39.04 0 0 1-14.208 43.648l-495.872 360.256z" fill="#FCA326" p-id="20239"></path><path d="M965.10848 427.008h-264.256l113.536-349.504a19.2 19.2 0 0 1 37.12 0z" fill="#E24329" p-id="20240"></path></svg>