<?xml version="1.0" standalone="no"?><!DOCTYPE svg PUBLIC "-//W3C//DTD SVG 1.1//EN" "http://www.w3.org/Graphics/SVG/1.1/DTD/svg11.dtd"><svg t="1619754710758" class="icon" viewBox="0 0 1024 1024" version="1.1" xmlns="http://www.w3.org/2000/svg" p-id="5095" xmlns:xlink="http://www.w3.org/1999/xlink" width="200" height="200"><defs><style type="text/css"></style></defs><path d="M512 512m-512 0a512 512 0 1 0 1024 0 512 512 0 1 0-1024 0Z" fill="#cdcdcd" p-id="5096" data-spm-anchor-id="a313x.7781069.0.i32" class="selected"></path><path d="M559 803c-4.6 0-9.2 1.5-13.6 4.5-11 7.6-21.6 11.7-31.5 12.3-5.8 0.3-12.1-1.4-20.4-5.6-0.6-0.3-2.8-1.8-4.3-2.7-4.1-2.7-5.1-3.3-6.3-3.4-3.7-1.9-7.8-3-12-3-11.7 0-22.9 7.8-26.6 18.5-3.1 9-0.3 17.7 7.8 24.1 18.3 14.4 39.6 22 61.7 22 20.2 0 40.1-6.4 57.8-18.6 9.8-6.7 13.6-18.1 10.1-29.6-3.3-11-12.5-18.5-22.7-18.5zM365 325.6c-9.9 9.9-26.2 9.9-36.1 0l-50.4-50.4c-9.9-9.9-9.9-26.2 0-36.1 9.9-9.9 26.2-9.9 36.1 0l50.4 50.4c9.9 9.9 9.9 26.2 0 36.1zM511.9 277c-14 0-25.5-11.5-25.5-25.5v-71.3c0-14 11.5-25.5 25.5-25.5s25.5 11.5 25.5 25.5v71.3c0.1 14-11.4 25.5-25.5 25.5zM665.9 323.6c-9.9-9.9-9.9-26.2 0-36.1l50.4-50.4c9.9-9.9 26.2-9.9 36.1 0 9.9 9.9 9.9 26.2 0 36.1L702 323.6c-9.9 10-26.2 10-36.1 0zM699 394.6c-35.1-65.7-102.8-104.9-181-104.9-65.8 0-126.8 27.9-167.4 76.5-31.3 37.4-47.9 88.4-47 141.5 15.5-22.2 35-39.2 56.1-48.9 1-4.1 2.1-8.2 3.3-12.1 20.1-63.6 81.6-106.3 153.1-106.3 30.2 0 59.5 7.8 84.9 22.5 34.3 19.9 58.8 53.2 69.1 93.5 11.1 43.5 4.4 89.9-18.4 127.3-9.1 14.9-20.8 28.5-32.1 41.7-7.3 8.4-14.8 17.2-21.6 26.2-11.6 15.4-15.1 31.9-18.6 47.8v0.1c-1.2 5.4-5.3 9.8-10.7 11.2l-141.5 37.6c-14.4 3.8-19.4 16.4-18 27.1 1.5 11.4 10.4 23 24.4 23 2.3 0 4.7-0.3 7-1 39-10.4 77.9-20.7 116.9-31.1 4.4-1.2 8.6-2.2 12.7-3.2 31.7-7.8 56.8-14 59.7-59.7 1.1-16.6 15.1-31.9 27.6-45.4 3.2-3.4 6.2-6.7 8.9-9.9 14.8-17.4 33.2-40.9 44.9-68.7 24.5-58.3 20.2-124.1-12.3-184.8z" fill="#FFFFFF" p-id="5097" data-spm-anchor-id="a313x.7781069.0.i31" class=""></path><path d="M303.6 507.6c0.2 12.4 1.4 25 3.5 37.5 10.9 63.2 45.6 116.3 95.1 145.6 4.2 2.5 8.5 3.7 12.8 3.7 11.1 0 21.1-8.2 24.3-19.9 3.1-11.2-1.3-21.8-11.4-27.8-62.7-37.1-83.3-123.3-68.3-188-21 9.8-40.5 26.7-56 48.9z" fill="#FFFFFF" opacity=".4" p-id="5098"></path></svg>