<?xml version="1.0" standalone="no"?><!DOCTYPE svg PUBLIC "-//W3C//DTD SVG 1.1//EN" "http://www.w3.org/Graphics/SVG/1.1/DTD/svg11.dtd"><svg t="1620207127747" class="icon" viewBox="0 0 1024 1024" version="1.1" xmlns="http://www.w3.org/2000/svg" p-id="2810" xmlns:xlink="http://www.w3.org/1999/xlink" width="200" height="200"><defs><style type="text/css"></style></defs><path d="M512 512m-512 0a512 512 0 1 0 1024 0 512 512 0 1 0-1024 0Z" fill="#3366CC" p-id="2811" data-spm-anchor-id="a313x.7781069.0.i6" class="selected"></path><path d="M467.583 657.382c2.134-1.899 5.034-4.802 8.672-8.687l7.997-7.897a108.239 108.239 0 0 1 32.132-21.014 102.248 102.248 0 0 1 37.511-6.253c4.193-0.051 7.59-3.435 7.641-7.629a7.412 7.412 0 0 0-2.169-5.045 7.344 7.344 0 0 0-5.384-2.262 118.168 118.168 0 0 0-38.041 5.896 111.975 111.975 0 0 0-30.994 16.063 199.451 199.451 0 0 0-28.134 26.062 7.837 7.837 0 0 0-2.261 5.379c0.051 4.196 3.442 7.604 7.641 7.651a7.917 7.917 0 0 0 5.389-2.264z" fill="#FFFFFF" p-id="2812"></path><path d="M287.397 655.913v66.695c0 45.146 30.822 73.366 76.846 73.366h298.375c41.578 0 75.709-21.618 76.845-73.366V562.05l75.801-27.094a43.42 43.42 0 0 0 15.77-33.477 43.375 43.375 0 0 0-15.77-33.477l-79.021-65.037c0.186-2.06 0.186-4.11 0-6.17v-90.31c-1.691-21.025-19.232-37.216-40.336-37.216-21.086 0-38.632 16.19-40.326 37.216v30.921l-104.202-85.015c-21.271-19.348-53.76-19.348-75.035 0L357.989 347.91c38.414 48.084 52.787 111.063 39.03 171.033a201.798 201.798 0 0 1-109.622 136.97z m121.735 35.253a14.295 14.295 0 0 1 3.74-8.687 42.958 42.958 0 0 1 8.168-7.813 87.934 87.934 0 0 0 8.156-6.688c2.493-2.31 3.737-4.231 3.737-5.738a31.006 31.006 0 0 0-1.651-4.518c-0.768-1.699-1.394-3.479-1.914-5.277a72.579 72.579 0 0 1-1.036-12.43 67.884 67.884 0 0 1 5.208-26.046 71.291 71.291 0 0 1 14.24-22.063 103.89 103.89 0 0 1 20.409-16.585 112.587 112.587 0 0 1 23.615-11.636 78.103 78.103 0 0 1 17.363-3.033c7.18-0.581 14.334-0.931 21.455-1.051a659.08 659.08 0 0 0 21.357-0.692 97.32 97.32 0 0 0 19.53-2.861 30.57 30.57 0 0 0 13.552-6.773l3.564-3.565 3.555-3.381c2.381-2.258 3.441-3.068 3.221-2.431-0.233 0.63 1.209 0 4.332-1.909 3.134-1.916 4.871-2.089 5.219-0.521a10.5 10.5 0 0 1 8.676 5.467 39.905 39.905 0 0 1 5.65 13.375c1.271 5.27 2.22 10.219 2.861 14.847 0.579 3.802 0.899 7.626 0.968 11.463h-0.274c-0.024 7.762-0.84 15.51-2.431 23.098a98.393 98.393 0 0 1-22.054 45.767 136.041 136.041 0 0 1-42.813 32.032 115.012 115.012 0 0 1-52.097 12.957 105.659 105.659 0 0 1-34.737-5.649c-1.22-0.408-4.71-2.085-10.498-5.036a34.98 34.98 0 0 0-11.477-4.43c-1.271 0-2.824 1.27-4.688 3.813a85.66 85.66 0 0 0-5.381 8.686 41.3 41.3 0 0 1-6.244 8.688 10.492 10.492 0 0 1-7.219 3.822 13.045 13.045 0 0 1-6.07-1.308 11.285 11.285 0 0 1-3.739-2.859 53.92 53.92 0 0 1-3.208-5.036l-0.701-1.309-0.348-1.911a5.862 5.862 0 0 1 0-1.124 7.892 7.892 0 0 1 0.004-1.655z" fill="#FFFFFF" p-id="2813"></path><path d="M402.458 473.557a200.866 200.866 0 0 0-44.21-125.91l-142.06 114.458a43.404 43.404 0 0 0-15.708 33.411 43.438 43.438 0 0 0 15.708 33.441l71.554 26.06v100.641c70.11-33.555 114.727-104.381 114.716-182.101z" fill="#FFFFFF" opacity=".4" p-id="2814"></path></svg>