<?xml version="1.0" standalone="no"?><!DOCTYPE svg PUBLIC "-//W3C//DTD SVG 1.1//EN" "http://www.w3.org/Graphics/SVG/1.1/DTD/svg11.dtd"><svg t="1620024049384" class="icon" viewBox="0 0 1024 1024" version="1.1" xmlns="http://www.w3.org/2000/svg" p-id="11568" xmlns:xlink="http://www.w3.org/1999/xlink" width="200" height="200"><defs><style type="text/css"></style></defs><path d="M512 554.8c-35.5 0-64.3 28.8-64.3 64.3 0 28 18 51.5 42.9 60.4v68.3c0 11.8 9.6 21.4 21.4 21.4 11.8 0 21.4-9.6 21.4-21.4v-68.3c24.9-8.9 42.9-32.4 42.9-60.4 0-35.5-28.8-64.3-64.3-64.3z" fill="#cdcdcd" p-id="11569"></path><path d="M790.7 404.8H275.1v-60.9c0-120.7 107.6-218.8 239.9-218.8 112.7 0 208.8 69.9 233.9 170 2.7 10.9 13.8 17.5 24.7 14.8 10.9-2.7 17.5-13.8 14.8-24.7-14.1-56.4-48.9-107.6-98-144-24.4-18.1-51.6-32.1-80.9-41.8-30.3-10-62-15.1-94.4-15.1-74.6 0-144.9 26.8-197.8 75.4-53.4 49.1-82.8 114.5-82.8 184.1v60.9h-1.1c-47.4 0-85.7 38.4-85.7 85.7v343c0 47.4 38.4 85.7 85.7 85.7h557.4c47.4 0 85.7-38.4 85.7-85.7v-343c-0.1-47.2-38.5-85.6-85.8-85.6z m45 428.7c0 24.8-20.2 45-45 45H233.3c-24.8 0-45-20.2-45-45v-343c0-24.8 20.2-45 45-45h557.4c24.8 0 45 20.2 45 45v343z" fill="#cdcdcd" p-id="11570"></path></svg>