<?xml version="1.0" standalone="no"?><!DOCTYPE svg PUBLIC "-//W3C//DTD SVG 1.1//EN" "http://www.w3.org/Graphics/SVG/1.1/DTD/svg11.dtd"><svg t="1620200866184" class="icon" viewBox="0 0 1024 1024" version="1.1" xmlns="http://www.w3.org/2000/svg" p-id="12835" xmlns:xlink="http://www.w3.org/1999/xlink" width="200" height="200"><defs><style type="text/css"></style></defs><path d="M517.12 254.72a366.4 366.4 0 0 0 0 732.64 366.4 366.4 0 0 0 0-732.64z m185.6 333.76l-71.04 70.4 16 99.36c5.6 33.44-13.12 48-43.2 32l-87.84-46.88-87.84 46.88c-29.44 16-48.96 2.08-43.2-32l16-99.36-71.04-70.4c-23.84-23.68-17.12-46.56 16-51.68l98.24-14.56L490.56 432c14.72-30.4 38.4-31.04 53.44 0l44 90.4 98.24 14.56c32.96 4.8 40.8 27.52 16 51.68zM854.4 43.52H631.36A25.44 25.44 0 0 0 606.88 64l-68.8 137.76s147.2 8.96 234.08 94.08l102.72-211.2a25.6 25.6 0 0 0-20.48-41.12z m-361.6 157.6L424 64A25.44 25.44 0 0 0 400 43.52H176a25.6 25.6 0 0 0-20.16 41.12l102.72 210.4c86.88-84.96 234.08-94.08 234.08-94.08z m0 0" fill="#CB9564" p-id="12836"></path><path d="M156.64 621.12a363.84 363.84 0 0 0 341.6 365.76l44-230.4-24.96-13.28-87.84 46.88c-29.44 16-48.96 2.08-43.2-32l16-99.36-71.04-70.4c-23.84-23.68-17.12-46.56 16-51.68l98.24-14.56L490.56 432c14.72-30.4 38.4-31.04 53.44 0l43.2 88.96 47.04-246.4a355.04 355.04 0 0 0-116.96-19.68A363.52 363.52 0 0 0 156.64 621.12z m101.92-325.92c86.88-84.96 234.08-94.08 234.08-94.08L424 64A25.44 25.44 0 0 0 400 43.52H176a25.6 25.6 0 0 0-20.16 41.12zM606.88 64l-68.8 137.76a481.92 481.92 0 0 1 105.92 21.44l34.24-179.68h-46.88A25.44 25.44 0 0 0 606.88 64z m0 0" fill="#E1BF96" p-id="12837"></path></svg>