<?xml version="1.0" standalone="no"?><!DOCTYPE svg PUBLIC "-//W3C//DTD SVG 1.1//EN" "http://www.w3.org/Graphics/SVG/1.1/DTD/svg11.dtd"><svg t="1620024511848" class="icon" viewBox="0 0 1024 1024" version="1.1" xmlns="http://www.w3.org/2000/svg" p-id="19389" xmlns:xlink="http://www.w3.org/1999/xlink" width="200" height="200"><defs><style type="text/css"></style></defs><path d="M796.288 227.712a402.048 402.048 0 0 1-568.576 568.576 40 40 0 0 1 56.576-56.576 322.048 322.048 0 1 0 0-455.424 40 40 0 1 1-56.576-56.576 402.048 402.048 0 0 1 568.576 0z" fill="#cdcdcd" opacity=".65" p-id="19390"></path><path d="M153.28 472m40 0l400.96 0q40 0 40 40l0 0q0 40-40 40l-400.96 0q-40 0-40-40l0 0q0-40 40-40Z" fill="#cdcdcd" opacity=".65" p-id="19391"></path><path d="M296.64 655.36a32 32 0 0 1-40.832 3.648l-4.48-3.712-120.64-120.64a32 32 0 0 1-3.712-40.832l3.712-4.48 120.64-120.64a32 32 0 0 1 48.96 40.832l-3.648 4.416L198.592 512l98.048 98.048a32 32 0 0 1 3.648 40.832l-3.648 4.48z" fill="#cdcdcd" opacity=".65" p-id="19392"></path></svg>