<?xml version="1.0" standalone="no"?><!DOCTYPE svg PUBLIC "-//W3C//DTD SVG 1.1//EN" "http://www.w3.org/Graphics/SVG/1.1/DTD/svg11.dtd"><svg t="1620306003248" class="icon" viewBox="0 0 1024 1024" version="1.1" xmlns="http://www.w3.org/2000/svg" p-id="47502" xmlns:xlink="http://www.w3.org/1999/xlink" width="200" height="200"><defs><style type="text/css"></style></defs><path d="M338.66752 400.70656l-48.32256-49.1776c-30.976 42.1888-51.6864 88.00256-55.04512 137.18016h68.84352c3.456-31.66208 17.26464-59.79648 34.52416-88.00256m-34.51904 158.32576H235.30496c6.90176 49.34144 24.06912 94.99136 55.04512 137.26208l48.32256-49.25952c-17.26464-28.22656-31.07328-56.3456-34.52416-88.00256m34.51904 186.52672c41.32352 31.66208 86.09792 49.25952 134.3232 56.24832v-70.4c-30.96576-3.53792-58.58304-17.52064-86.09792-35.11808l-48.22528 49.26976z m203.09504-499.6352V136.86272L386.80576 295.18336l154.9568 158.32064V316.32384c96.46592 17.60256 172.2112 102.0672 172.2112 207.58528s-75.74528 189.9776-172.2112 207.49824v70.4c134.34368-17.60256 241.15712-137.27232 241.15712-277.89824-0.00512-140.80512-106.8288-260.38784-241.15712-277.98528" fill="#2C2C2C" p-id="47503"></path></svg>