<?xml version="1.0" standalone="no"?><!DOCTYPE svg PUBLIC "-//W3C//DTD SVG 1.1//EN" "http://www.w3.org/Graphics/SVG/1.1/DTD/svg11.dtd"><svg t="1620306114367" class="icon" viewBox="0 0 1024 1024" version="1.1" xmlns="http://www.w3.org/2000/svg" p-id="56034" xmlns:xlink="http://www.w3.org/1999/xlink" width="200" height="200"><defs><style type="text/css"></style></defs><path d="M673.728 66.816a30.72 30.72 0 0 1 35.712 7.424l305.088 323.648a36.48 36.48 0 0 1 0 49.024l-305.088 323.712a30.72 30.72 0 0 1-35.712 7.36 34.368 34.368 0 0 1-20.032-31.872V595.776h-32.64c-240.192 0-449.344 139.648-560 346.88a31.808 31.808 0 0 1-36.672 16.128 34.816 34.816 0 0 1-24.384-33.728C3.072 550.976 289.792 248.96 642.816 248.96h10.88V98.688c0-13.824 7.808-26.816 20.032-31.872z m45.312 115.584v135.936h-76.224c-274.112 0-503.808 202.56-562.624 474.432 129.92-162.752 323.84-266.304 540.8-266.304h98.048v135.936L945.28 422.4l-226.176-240z" fill="#000000" fill-opacity=".65" p-id="56035" data-spm-anchor-id="a313x.7781069.0.i53" class="selected"></path></svg>