<?xml version="1.0" standalone="no"?><!DOCTYPE svg PUBLIC "-//W3C//DTD SVG 1.1//EN" "http://www.w3.org/Graphics/SVG/1.1/DTD/svg11.dtd"><svg t="1619754738375" class="icon" viewBox="0 0 1024 1024" version="1.1" xmlns="http://www.w3.org/2000/svg" p-id="5376" xmlns:xlink="http://www.w3.org/1999/xlink" width="200" height="200"><defs><style type="text/css"></style></defs><path d="M512 512m-512 0a512 512 0 1 0 1024 0 512 512 0 1 0-1024 0Z" fill="#cdcdcd" p-id="5377" data-spm-anchor-id="a313x.7781069.0.i34" class="selected"></path><path d="M816.885 481.07L691.333 263.621a62.004 62.004 0 0 0-53.707-31.022H386.514a62.012 62.012 0 0 0-53.708 31.022L207.261 481.07c-11.083 19.19-11.083 42.841 0 62.019l53.548 92.757c61.871-31.169 149.193 3.888 200.333 82.586 15.328 23.588 25.746 48.555 31.387 73.136h145.097a62.006 62.006 0 0 0 53.707-31.01l125.552-217.469c11.075-19.178 11.075-42.829 0-62.019zM512.071 640.909c-71.145 0-128.83-57.673-128.83-128.823 0-71.145 57.686-128.824 128.83-128.824 71.147 0 128.827 57.679 128.827 128.824 0 71.15-57.679 128.823-128.827 128.823z" fill="#FFFFFF" p-id="5378"></path><path d="M260.81 635.846l71.996 124.712a62.013 62.013 0 0 0 53.708 31.01H492.53c-5.641-24.581-16.059-49.548-31.387-73.136-51.14-78.699-138.462-113.755-200.333-82.586z" fill="#FCFCFC" opacity=".4" p-id="5379"></path></svg>