<?xml version="1.0" standalone="no"?><!DOCTYPE svg PUBLIC "-//W3C//DTD SVG 1.1//EN" "http://www.w3.org/Graphics/SVG/1.1/DTD/svg11.dtd"><svg t="1620206076289" class="icon" viewBox="0 0 1024 1024" version="1.1" xmlns="http://www.w3.org/2000/svg" p-id="2326" xmlns:xlink="http://www.w3.org/1999/xlink" width="200" height="200"><defs><style type="text/css"></style></defs><path d="M512 512m-512 0a512 512 0 1 0 1024 0 512 512 0 1 0-1024 0Z" fill="#cdcdcd" p-id="2327" data-spm-anchor-id="a313x.7781069.0.i0" class="selected"></path><path d="M528.006 396.319a28.337 28.337 0 0 0-2.001 21.646 28.328 28.328 0 0 0 13.913 16.698l167.968 88.321c13.91 7.325 31.126 2.033 38.519-11.84l36.455-68.805c-94.924-9.485-179.514-32.822-244.535-65.493l-10.319 19.473zM404.716 226.178H248.768c-17.189-0.023-31.146 13.89-31.177 31.079v207.028c0 17.154 13.954 31.063 31.177 31.063h207.845c17.182 0.024 31.136-13.879 31.177-31.063V346.796c-48.833-34.572-78.913-75.945-83.074-120.618zM776.127 544.508v0.015H568.282a31.105 31.105 0 0 0-31.178 31.033v207.059c0 17.138 13.955 31.051 31.178 31.051h207.845c17.182 0.031 31.136-13.868 31.177-31.051v-207.06c0-17.138-13.968-31.047-31.177-31.047zM456.612 544.508v0.015H248.768c-17.169-0.032-31.124 13.847-31.177 31.019v207.06c0 17.15 13.954 31.063 31.177 31.063h207.845c17.179 0.024 31.129-13.872 31.177-31.051V575.555c-0.049-17.178-13.999-31.071-31.178-31.047z" fill="#FFFFFF" p-id="2328"></path><path d="M837.081 322.15a28.288 28.288 0 0 0-13.94-16.691l-0.014-0.018-167.94-88.331c-13.897-7.312-31.093-2.03-38.488 11.822l-78.374 147.914c65.021 32.671 149.611 56.008 244.535 65.493l52.209-98.536a28.302 28.302 0 0 0 2.012-21.653zM456.612 226.178h-51.896c4.162 44.673 34.241 86.046 83.074 120.619v-89.54c-0.031-17.19-13.989-31.103-31.178-31.079z" fill="#FFFFFF" opacity=".4" p-id="2329"></path></svg>