<?xml version="1.0" standalone="no"?><!DOCTYPE svg PUBLIC "-//W3C//DTD SVG 1.1//EN" "http://www.w3.org/Graphics/SVG/1.1/DTD/svg11.dtd"><svg t="1620305874127" class="icon" viewBox="0 0 1170 1024" version="1.1" xmlns="http://www.w3.org/2000/svg" p-id="40217" xmlns:xlink="http://www.w3.org/1999/xlink" width="228.515625" height="200"><defs><style type="text/css"></style></defs><path d="M945.537662 321.296623C912.822857 182.724156 811.752727 0 585.142857 0c-173.947013 0-259.324675 78.196364-300.284675 143.891948a292.571429 292.571429 0 0 0-35.374546 81.654026C140.434286 256.930909 0 345.766234 0 531.948052c0 141.498182 74.206753 250.281558 208.78961 306.402078A537.001558 537.001558 0 0 0 398.961039 877.714286h26.597403v-79.792208h-26.597403S79.792208 797.922078 79.792208 531.948052c0-212.779221 239.376623-239.376623 239.376623-239.376623s0-212.779221 265.974026-212.779221 292.571429 319.168831 292.571429 319.168831a196.820779 196.820779 0 0 1 22.075844 0c54.524675 0 190.703377 17.022338 190.703376 186.181818 0 212.779221-319.168831 212.779221-319.168831 212.779221h-53.194805v79.792208h53.194805c138.040519 0 398.961039-61.174026 398.961039-292.571429 0-173.415065-112.772987-248.41974-224.748052-263.846234z" p-id="40218"></path><path d="M751.376623 538.597403a39.896104 39.896104 0 0 0 29.257143-67.025455l-159.584415-172.883117a39.098182 39.098182 0 0 0-39.098182-10.904935 39.098182 39.098182 0 0 0-38.566234 10.107013l-172.883117 176.074805a39.896104 39.896104 0 1 0 56.918442 56.12052l104.527792-106.389611V984.103896a39.896104 39.896104 0 0 0 79.792208 0V406.142338l110.379221 119.688311a39.63013 39.63013 0 0 0 29.257142 12.766754z" p-id="40219"></path></svg>