<?xml version="1.0" standalone="no"?><!DOCTYPE svg PUBLIC "-//W3C//DTD SVG 1.1//EN" "http://www.w3.org/Graphics/SVG/1.1/DTD/svg11.dtd"><svg t="1659839309883" class="icon" viewBox="0 0 1024 1024" version="1.1" xmlns="http://www.w3.org/2000/svg" p-id="3947" xmlns:xlink="http://www.w3.org/1999/xlink" width="200" height="200"><defs><style type="text/css">@font-face { font-family: feedback-iconfont; src: url("//at.alicdn.com/t/font_1031158_u69w8yhxdu.woff2?t=1630033759944") format("woff2"), url("//at.alicdn.com/t/font_1031158_u69w8yhxdu.woff?t=1630033759944") format("woff"), url("//at.alicdn.com/t/font_1031158_u69w8yhxdu.ttf?t=1630033759944") format("truetype"); }
</style></defs><path d="M513 103.7c-226.1 0-409.4 183.3-409.4 409.4S286.9 922.6 513 922.6s409.4-183.3 409.4-409.4S739.1 103.7 513 103.7z m153.5 364.7c-5.2 5.3-12.1 7.9-19 7.9s-13.8-2.6-19-7.9L545.1 385c0 0.4 0.1 0.7 0.1 1.1V705c0 11.1-5.7 20.9-14.4 26.6-4.7 4.2-10.9 6.7-17.7 6.7-6.8 0-13-2.5-17.7-6.7-8.7-5.7-14.4-15.5-14.4-26.6V386.1c0-0.4 0-0.7 0.1-1.1l-83.4 83.4c-10.5 10.5-27.5 10.5-38 0s-10.5-27.5 0-38L494 295.9c10.5-10.5 27.5-10.5 38 0l134.5 134.5c10.5 10.4 10.5 27.5 0 38z" fill="#1296db" p-id="3948"></path></svg>