<?xml version="1.0" standalone="no"?><!DOCTYPE svg PUBLIC "-//W3C//DTD SVG 1.1//EN" "http://www.w3.org/Graphics/SVG/1.1/DTD/svg11.dtd"><svg t="1659839301746" class="icon" viewBox="0 0 1024 1024" version="1.1" xmlns="http://www.w3.org/2000/svg" p-id="3697" xmlns:xlink="http://www.w3.org/1999/xlink" width="200" height="200"><defs><style type="text/css">@font-face { font-family: feedback-iconfont; src: url("//at.alicdn.com/t/font_1031158_u69w8yhxdu.woff2?t=1630033759944") format("woff2"), url("//at.alicdn.com/t/font_1031158_u69w8yhxdu.woff?t=1630033759944") format("woff"), url("//at.alicdn.com/t/font_1031158_u69w8yhxdu.ttf?t=1630033759944") format("truetype"); }
</style></defs><path d="M511.3 98.2c-229.2 0-415 185.8-415 415s185.8 415 415 415 415-185.8 415-415c0.1-229.2-185.8-415-415-415zM357.9 493c10.5-10.5 27.5-10.5 38 0l83.4 83.4c0-0.4-0.1-0.7-0.1-1.1V316.8c0-11.1 5.7-20.9 14.4-26.6 4.7-4.2 10.9-6.7 17.7-6.7 6.8 0 13 2.5 17.7 6.7 8.7 5.7 14.4 15.5 14.4 26.6v258.5c0 0.4 0 0.7-0.1 1.1l83.4-83.4c5.3-5.2 12.1-7.9 19-7.9s13.8 2.6 19 7.9c10.5 10.5 10.5 27.5 0 38L530.3 665.5c-10.5 10.5-27.5 10.5-38 0L357.9 531c-10.5-10.5-10.5-27.5 0-38z m298.6 249H366.2c-10.1 0-18.3-10.3-18.3-24.1s8.1-24.1 18.3-24.1h290.3c10.1 0 18.3 10.3 18.3 24.1-0.1 13.8-8.3 24.1-18.3 24.1z" fill="#e6e6e6" p-id="3698"></path></svg>