<?xml version="1.0" standalone="no"?><!DOCTYPE svg PUBLIC "-//W3C//DTD SVG 1.1//EN" "http://www.w3.org/Graphics/SVG/1.1/DTD/svg11.dtd"><svg t="1659840068044" class="icon" viewBox="0 0 1024 1024" version="1.1" xmlns="http://www.w3.org/2000/svg" p-id="4197" xmlns:xlink="http://www.w3.org/1999/xlink" width="200" height="200"><defs><style type="text/css">@font-face { font-family: feedback-iconfont; src: url("//at.alicdn.com/t/font_1031158_u69w8yhxdu.woff2?t=1630033759944") format("woff2"), url("//at.alicdn.com/t/font_1031158_u69w8yhxdu.woff?t=1630033759944") format("woff"), url("//at.alicdn.com/t/font_1031158_u69w8yhxdu.ttf?t=1630033759944") format("truetype"); }
</style></defs><path d="M854.7 253.3H671.4c-2.5-83.5-70.5-149.8-154.1-149.8S365.8 169.8 362.9 253h-195c-21.7 0-39.4 17.6-39.4 39.4 0 21.7 17.6 39.4 39.4 39.4h43.5v440.6c0 82.7 56.1 150.3 125.4 150.3H690c69.2 0 125.4-67.2 125.4-150.3V332.1h39.4c21.7 0 39.4-17.6 39.4-39.4-0.1-21.6-17.7-39.4-39.5-39.4zM422.4 713.9c0 22.6-14.8 40.6-32.8 40.6-18.4 0-32.8-18.1-32.8-40.6V482.5c0-22.6 14.8-40.6 32.8-40.6 18.1 0 32.8 18 32.8 40.6v231.4z m118.8 0c0 22.6-14.8 40.6-32.8 40.6-18 0-32.8-18.1-32.8-40.6V482.5c0-22.6 14.8-40.6 32.8-40.6 18.1 0 32.8 18 32.8 40.6v231.4zM436.7 253.1c2.9-42.7 37.7-75.8 80.7-75.8 43.1 0 77.9 33.2 80.4 75.8H436.7z m229.5 460.8c0 22.6-14.8 40.6-32.8 40.6-18.5 0-32.8-18.1-32.8-40.6V482.5c0-22.6 14.8-40.6 32.8-40.6 18.1 0 32.8 18 32.8 40.6v231.4z" fill="#dbdbdb" p-id="4198"></path></svg>