<?xml version="1.0" standalone="no"?><!DOCTYPE svg PUBLIC "-//W3C//DTD SVG 1.1//EN" "http://www.w3.org/Graphics/SVG/1.1/DTD/svg11.dtd"><svg t="1660128457334" class="icon" viewBox="0 0 1024 1024" version="1.1" xmlns="http://www.w3.org/2000/svg" p-id="17874" id="mx_n_1660128457336" xmlns:xlink="http://www.w3.org/1999/xlink" width="200" height="200"><defs><style type="text/css">@font-face { font-family: feedback-iconfont; src: url("//at.alicdn.com/t/font_1031158_u69w8yhxdu.woff2?t=1630033759944") format("woff2"), url("//at.alicdn.com/t/font_1031158_u69w8yhxdu.woff?t=1630033759944") format("woff"), url("//at.alicdn.com/t/font_1031158_u69w8yhxdu.ttf?t=1630033759944") format("truetype"); }
</style></defs><path d="M512 512m-448 0a448 448 0 1 0 896 0 448 448 0 1 0-896 0Z" fill="#dbdbdb" p-id="17875" data-spm-anchor-id="a313x.7781069.0.i31" class="selected"></path><path d="M256 256m64 0l384 0q64 0 64 64l0 384q0 64-64 64l-384 0q-64 0-64-64l0-384q0-64 64-64Z" fill="#E2BF7A" p-id="17876"></path><path d="M332 302h360v420H332z" fill="#FFFFFF" p-id="17877"></path><path d="M322 342h380v360H322z" fill="#E9EBF1" p-id="17878"></path><path d="M302 382h420v300H302z" fill="#FFFFFF" p-id="17879"></path><path d="M282 422h460v300H282z" fill="#E9EBF1" p-id="17880"></path><path d="M768 412.192V704c0 35.346-28.654 64-64 64H320c-35.346 0-64-28.654-64-64V412.187a32 32 0 0 0 15.27 27.278C380.543 506.488 460.787 540 512 540c51.212 0 131.456-33.512 240.73-100.535A32 32 0 0 0 768 412.192z" fill="#FFD786" p-id="17881"></path><path d="M512 604m-32 0a32 32 0 1 0 64 0 32 32 0 1 0-64 0Z" fill="#CBA559" p-id="17882"></path></svg>