<?xml version="1.0" standalone="no"?><!DOCTYPE svg PUBLIC "-//W3C//DTD SVG 1.1//EN" "http://www.w3.org/Graphics/SVG/1.1/DTD/svg11.dtd"><svg t="1659839266808" class="icon" viewBox="0 0 1024 1024" version="1.1" xmlns="http://www.w3.org/2000/svg" p-id="3043" xmlns:xlink="http://www.w3.org/1999/xlink" width="200" height="200"><defs><style type="text/css">@font-face { font-family: feedback-iconfont; src: url("//at.alicdn.com/t/font_1031158_u69w8yhxdu.woff2?t=1630033759944") format("woff2"), url("//at.alicdn.com/t/font_1031158_u69w8yhxdu.woff?t=1630033759944") format("woff"), url("//at.alicdn.com/t/font_1031158_u69w8yhxdu.ttf?t=1630033759944") format("truetype"); }
</style></defs><path d="M512.3 98.2c-229.2 0-415 185.8-415 415s185.8 415 415 415 415-185.8 415-415-185.8-415-415-415z m-65.5 563.3c0 18.2-14.8 33-33 33s-33-14.8-33-33V365.1c0-18.2 14.8-33 33-33s33 14.8 33 33v296.4z m197 0c0 18.2-14.8 33-33 33s-33-14.8-33-33V365.1c0-18.2 14.8-33 33-33s33 14.8 33 33v296.4z" fill="#e6e6e6" p-id="3044" data-spm-anchor-id="a313x.7781069.0.i14" class="selected"></path></svg>