<?xml version="1.0" standalone="no"?><!DOCTYPE svg PUBLIC "-//W3C//DTD SVG 1.1//EN" "http://www.w3.org/Graphics/SVG/1.1/DTD/svg11.dtd"><svg t="1660032942315" class="icon" viewBox="0 0 1024 1024" version="1.1" xmlns="http://www.w3.org/2000/svg" p-id="756" xmlns:xlink="http://www.w3.org/1999/xlink" width="200" height="200"><defs><style type="text/css">@font-face { font-family: feedback-iconfont; src: url("//at.alicdn.com/t/font_1031158_u69w8yhxdu.woff2?t=1630033759944") format("woff2"), url("//at.alicdn.com/t/font_1031158_u69w8yhxdu.woff?t=1630033759944") format("woff"), url("//at.alicdn.com/t/font_1031158_u69w8yhxdu.ttf?t=1630033759944") format("truetype"); }
</style></defs><path d="M838.3 392.82c0-29.03-23.62-52.65-52.65-52.65S733 363.79 733 392.82V573.9c0 5.52-4.48 10-10 10s-10-4.48-10-10V225.83c0-29.03-23.62-52.65-52.65-52.65s-52.65 23.62-52.65 52.65v308.22c0 5.52-4.48 10-10 10s-10-4.48-10-10V123.85c0-29.03-23.62-52.65-52.65-52.65s-52.65 23.62-52.65 52.65v419.5c0 5.52-4.48 10-10 10s-10-4.48-10-10V225.83c0-29.03-23.62-52.65-52.65-52.65s-52.65 23.62-52.65 52.65v383.35c0 4.33-2.78 8.16-6.89 9.51-4.11 1.34-8.62-0.11-11.18-3.6L253.97 498.8c-18.2-22.49-51.3-26.06-73.88-7.94-22.64 18.17-26.28 51.38-8.1 74.02 0.07 0.08 0.13 0.17 0.19 0.25L294.6 727.98c17.68 22.09 27.42 49.84 27.42 78.14 0 80 65.08 145.08 145.08 145.08h226.12c80 0 145.08-65.08 145.08-145.08v-413.3z" p-id="757" fill="#7dc7f6"></path></svg>