<?xml version="1.0" standalone="no"?><!DOCTYPE svg PUBLIC "-//W3C//DTD SVG 1.1//EN" "http://www.w3.org/Graphics/SVG/1.1/DTD/svg11.dtd"><svg t="1659839249899" class="icon" viewBox="0 0 1024 1024" version="1.1" xmlns="http://www.w3.org/2000/svg" p-id="2793" xmlns:xlink="http://www.w3.org/1999/xlink" width="200" height="200"><defs><style type="text/css">@font-face { font-family: feedback-iconfont; src: url("//at.alicdn.com/t/font_1031158_u69w8yhxdu.woff2?t=1630033759944") format("woff2"), url("//at.alicdn.com/t/font_1031158_u69w8yhxdu.woff?t=1630033759944") format("woff"), url("//at.alicdn.com/t/font_1031158_u69w8yhxdu.ttf?t=1630033759944") format("truetype"); }
</style></defs><path d="M886.3 260c0-71.9-58.5-130.4-130.4-130.4-35.7 0-68.1 14.4-91.7 37.8l-0.3-0.3-500.1 500.1 0.3 0.3-5.1 5.1c-6.2 6.2-10.3 14.5-11.6 23.2l-21 149.5c-1.8 12.9 2.4 25.5 11.6 34.6 7.8 7.7 18 11.9 28.7 11.9 2 0 4-0.1 6-0.4l148.7-21.7c8.6-1.3 16.8-5.4 23-11.5l5.1-5.1 0.3 0.3L850 353.1l-0.3-0.3c23.2-23.6 36.6-57.2 36.6-92.8zM316.6 831.6l-139.9 14.2c-3.5 0.4-5.7-1.4-6.8-2.5-1-1.1-2.7-3.4-2.3-6.8l17-140.4 4.6-3.6 133.3 133.3-5.9 5.8z m437.2-661c49.1 0 89 39.9 89 89 0 23.8-8.6 46.5-23.8 62.5L692.2 195.3c16-15.3 37.7-24.7 61.6-24.7z" fill="#1296db" p-id="2794"></path></svg>