<?xml version="1.0" standalone="no"?><!DOCTYPE svg PUBLIC "-//W3C//DTD SVG 1.1//EN" "http://www.w3.org/Graphics/SVG/1.1/DTD/svg11.dtd"><svg t="1659839244509" class="icon" viewBox="0 0 1024 1024" version="1.1" xmlns="http://www.w3.org/2000/svg" p-id="2591" xmlns:xlink="http://www.w3.org/1999/xlink" width="200" height="200"><defs><style type="text/css">@font-face { font-family: feedback-iconfont; src: url("//at.alicdn.com/t/font_1031158_u69w8yhxdu.woff2?t=1630033759944") format("woff2"), url("//at.alicdn.com/t/font_1031158_u69w8yhxdu.woff?t=1630033759944") format("woff"), url("//at.alicdn.com/t/font_1031158_u69w8yhxdu.ttf?t=1630033759944") format("truetype"); }
</style></defs><path d="M683.6 288.4l-21.2 26.2c-12 14.8-2.6 36.9 16.3 38.7l165.9 15.4c21.9 2 38.8-18.8 32.3-39.8l-49.6-159c-5.7-18.2-29.3-22.7-41.2-7.9l-32.9 40.6c-85.1-62.9-194.4-89.5-305.7-67.7C290 165.7 166.1 295.6 142.7 454.4c-35.4 239.2 149.1 444.7 381.5 444.7 159.8 0 301.2-98 358.9-243.9 9.3-23.4 4.8-51.5-15.1-66.9-31.2-24.2-73.4-10.4-86.3 23.3-48.2 126.3-183.8 203.5-325.3 169.1C352.3 755.3 271 668 252.8 562.4c-30-173.9 103.1-324.7 271.4-324.7 58.2-0.1 113.5 18.1 159.4 50.7z" fill="#1296db" p-id="2592"></path></svg>